<?xml version="1.0" encoding="windows-1252"?>
<!-- Generator: Adobe Illustrator 20.1.0, SVG Export Plug-In . SVG Version: 6.00 Build 0)  -->
<svg xmlns="http://www.w3.org/2000/svg" xmlns:xlink="http://www.w3.org/1999/xlink" version="1.1" id="&#1057;&#1083;&#1086;&#1081;_1" x="0px" y="0px" viewBox="0 0 64 64" style="enable-background:new 0 0 64 64;" xml:space="preserve">
<linearGradient id="SVGID_1__49462" gradientUnits="userSpaceOnUse" x1="32" y1="5.5" x2="32" y2="58.1165" spreadMethod="reflect">
	<stop offset="0" style="stop-color:#1A6DFF"/>
	<stop offset="1" style="stop-color:#C822FF"/>
</linearGradient>
<path style="fill:url(#SVGID_1__49462);" d="M52,32h-5V15c0-2.757-2.243-5-5-5h-4c0-1.103-0.897-2-2-2h-4.184C31.402,6.839,30.302,6,29,6  h-2c-1.302,0-2.402,0.839-2.816,2H20c-1.103,0-2,0.897-2,2h-4c-2.757,0-5,2.243-5,5v34c0,2.757,2.243,5,5,5h19v1  c0,1.654,1.346,3,3,3h16c1.654,0,3-1.346,3-3V35C55,33.346,53.654,32,52,32z M42,12c1.654,0,3,1.346,3,3v17h-2V16  c0-1.103-0.897-2-2-2h-9v-2H42z M26,9c0-0.551,0.448-1,1-1h2c0.552,0,1,0.449,1,1v1v6h-4V9z M30,18c1.103,0,2-0.897,2-2h9v16h-5  c-1.654,0-3,1.346-3,3v9H15v-2V16h9c0,1.103,0.897,2,2,2H30z M15,46h18v2H15V46z M14,52c-1.654,0-3-1.346-3-3V15  c0-1.654,1.346-3,3-3h10v2h-9c-1.103,0-2,0.897-2,2v26v2v4c0,1.103,0.897,2,2,2h18v2H14z M53,55c0,0.551-0.448,1-1,1H36  c-0.552,0-1-0.449-1-1V35c0-0.551,0.448-1,1-1h16c0.552,0,1,0.449,1,1V55z"/>
<linearGradient id="SVGID_2__49462" gradientUnits="userSpaceOnUse" x1="44" y1="5.5" x2="44" y2="58.1165" spreadMethod="reflect">
	<stop offset="0" style="stop-color:#1A6DFF"/>
	<stop offset="1" style="stop-color:#C822FF"/>
</linearGradient>
<rect x="39" y="40" style="fill:url(#SVGID_2__49462);" width="10" height="2"/>
<linearGradient id="SVGID_3__49462" gradientUnits="userSpaceOnUse" x1="44" y1="5.5" x2="44" y2="58.1165" spreadMethod="reflect">
	<stop offset="0" style="stop-color:#1A6DFF"/>
	<stop offset="1" style="stop-color:#C822FF"/>
</linearGradient>
<rect x="39" y="44" style="fill:url(#SVGID_3__49462);" width="10" height="2"/>
<linearGradient id="SVGID_4__49462" gradientUnits="userSpaceOnUse" x1="44" y1="5.5" x2="44" y2="58.1165" spreadMethod="reflect">
	<stop offset="0" style="stop-color:#1A6DFF"/>
	<stop offset="1" style="stop-color:#C822FF"/>
</linearGradient>
<rect x="39" y="48" style="fill:url(#SVGID_4__49462);" width="10" height="2"/>
<linearGradient id="SVGID_5__49462" gradientUnits="userSpaceOnUse" x1="20" y1="35.6667" x2="20" y2="42.5833" spreadMethod="reflect">
	<stop offset="0" style="stop-color:#6DC7FF"/>
	<stop offset="1" style="stop-color:#E6ABFF"/>
</linearGradient>
<path style="fill:url(#SVGID_5__49462);" d="M23,42h-5c-0.552,0-1-0.448-1-1v-5L23,42z"/>
</svg>